<?xml version="1.0" standalone="no"?>
 <!DOCTYPE svg PUBLIC "-//W3C//DTD SVG 1.1//EN" 
 "http://www.w3.org/Graphics/SVG/1.1/DTD/svg11.dtd"> 
<svg
  xmlns:svg="http://www.w3.org/2000/svg"
  xmlns="http://www.w3.org/2000/svg"
  xmlns:xlink="http://www.w3.org/1999/xlink"
  version="1.1"
  width="297.0022mm" height="210.0072mm" viewBox="0.0000 0.0000 297.0022 210.0072">
<title>SVG Image created as ESP32-FC-B_Cu.svg date 2026/03/24 22:28:09 </title>
  <desc>Image generated by PCBNEW </desc>
<g style="fill:#000000; fill-opacity:1.0000;stroke:#000000; stroke-opacity:1.0000;
stroke-linecap:round; stroke-linejoin:round;"
 transform="translate(0 0) scale(1 1)">
</g>
<g style="fill:#4D7FC4; fill-opacity:1.0000; stroke:none;">
<circle cx="169.1450" cy="98.6400" r="0.3000" /> 
</g>
<g style="fill:#4D7FC4; fill-opacity:1.0000; stroke:none;">
<circle cx="167.7450" cy="98.6400" r="0.3000" /> 
</g>
<g style="fill:#4D7FC4; fill-opacity:1.0000; stroke:none;">
<circle cx="169.8450" cy="99.3400" r="0.3000" /> 
</g>
<g style="fill:#4D7FC4; fill-opacity:1.0000; stroke:none;">
<circle cx="168.4450" cy="99.3400" r="0.3000" /> 
</g>
<g style="fill:#4D7FC4; fill-opacity:1.0000; stroke:none;">
<circle cx="167.0450" cy="99.3400" r="0.3000" /> 
</g>
<g style="fill:#4D7FC4; fill-opacity:1.0000; stroke:none;">
<circle cx="169.1450" cy="100.0400" r="0.3000" /> 
</g>
<g style="fill:#4D7FC4; fill-opacity:1.0000; stroke:none;">
<circle cx="167.7450" cy="100.0400" r="0.3000" /> 
</g>
<g style="fill:#4D7FC4; fill-opacity:1.0000; stroke:none;">
<circle cx="169.8450" cy="100.7400" r="0.3000" /> 
</g>
<g style="fill:#4D7FC4; fill-opacity:1.0000; stroke:none;">
<circle cx="168.4450" cy="100.7400" r="0.3000" /> 
</g>
<g style="fill:#4D7FC4; fill-opacity:1.0000; stroke:none;">
<circle cx="167.0450" cy="100.7400" r="0.3000" /> 
</g>
<g style="fill:#4D7FC4; fill-opacity:1.0000; stroke:none;">
<circle cx="169.1450" cy="101.4400" r="0.3000" /> 
</g>
<g style="fill:#4D7FC4; fill-opacity:1.0000; stroke:none;">
<circle cx="167.7450" cy="101.4400" r="0.3000" /> 
</g>
<g style="fill:none; 
stroke:#4D7FC4; stroke-width:0.9000; stroke-opacity:1; 
stroke-linecap:round; stroke-linejoin:round;">
<path d="M163.8250 84.8900
L163.8250 85.9900
" />
<path d="M163.8250 80.8700
L163.8250 81.6700
" />
<path d="M155.1850 84.8900
L155.1850 85.9900
" />
<path d="M155.1850 80.8700
L155.1850 81.6700
" />
<path style="fill:#4D7FC4; fill-opacity:1.0000; stroke:none;fill-rule:evenodd;"
d="M 143.3950,84.5500
143.3760,84.6457
143.3218,84.7268
143.2407,84.7810
143.1450,84.8000
142.4450,84.8000
142.3493,84.7810
142.2682,84.7268
142.2140,84.6457
142.1950,84.5500
142.1950,83.3000
142.2140,83.2043
142.2682,83.1232
142.3493,83.0690
142.4450,83.0500
143.1450,83.0500
143.2407,83.0690
143.3218,83.1232
143.3760,83.2043
143.3950,83.3000
Z" /> 
</g>
<g style="fill:none; 
stroke:#4D7FC4; stroke-width:1.2000; stroke-opacity:1; 
stroke-linecap:round; stroke-linejoin:round;">
<path d="M140.7950 84.2000
L140.7950 83.6500
" />
<path style="fill:#4D7FC4; fill-opacity:1.0000; stroke:none;fill-rule:evenodd;"
d="M 133.4800,104.2950
133.4800,102.5950
135.1800,102.5950
135.1800,104.2950
Z" /> 
</g>
<g style="fill:#4D7FC4; fill-opacity:1.0000; stroke:none;">
<circle cx="134.3300" cy="105.9850" r="0.8500" /> 
</g>
<g style="fill:#4D7FC4; fill-opacity:1.0000; stroke:none;">
<circle cx="134.3300" cy="108.5250" r="0.8500" /> 
<path style="fill:#4D7FC4; fill-opacity:1.0000; stroke:none;fill-rule:evenodd;"
d="M 133.4718,94.1576
133.4718,92.4576
135.1718,92.4576
135.1718,94.1576
Z" /> 
</g>
<g style="fill:#4D7FC4; fill-opacity:1.0000; stroke:none;">
<circle cx="134.3218" cy="95.8476" r="0.8500" /> 
</g>
<g style="fill:#4D7FC4; fill-opacity:1.0000; stroke:none;">
<circle cx="134.3218" cy="98.3876" r="0.8500" /> 
<path style="fill:#4D7FC4; fill-opacity:1.0000; stroke:none;fill-rule:evenodd;"
d="M 158.9650,118.3550
157.2650,118.3550
157.2650,116.6550
158.9650,116.6550
Z" /> 
</g>
<g style="fill:#4D7FC4; fill-opacity:1.0000; stroke:none;">
<circle cx="160.6550" cy="117.5050" r="0.8500" /> 
</g>
<g style="fill:#4D7FC4; fill-opacity:1.0000; stroke:none;">
<circle cx="163.1950" cy="117.5050" r="0.8500" /> 
</g>
<g style="fill:#4D7FC4; fill-opacity:1.0000; stroke:none;">
<circle cx="165.7350" cy="117.5050" r="0.8500" /> 
</g>
<g style="fill:#4D7FC4; fill-opacity:1.0000; stroke:none;">
<circle cx="140.6250" cy="92.2750" r="0.2250" /> 
</g>
<g style="fill:#4D7FC4; fill-opacity:1.0000; stroke:none;">
<circle cx="167.7400" cy="98.6850" r="0.2250" /> 
</g>
<g style="fill:#4D7FC4; fill-opacity:1.0000; stroke:none;">
<circle cx="152.7200" cy="116.8950" r="0.2250" /> 
</g>
<g style="fill:#4D7FC4; fill-opacity:1.0000; stroke:none;">
<circle cx="141.5650" cy="90.7300" r="0.2250" /> 
</g>
<g style="fill:#4D7FC4; fill-opacity:1.0000; stroke:none;">
<circle cx="154.7050" cy="118.3000" r="0.2250" /> 
</g>
<g style="fill:#4D7FC4; fill-opacity:1.0000; stroke:none;">
<circle cx="141.6300" cy="91.4550" r="0.2250" /> 
</g>
<g style="fill:#4D7FC4; fill-opacity:1.0000; stroke:none;">
<circle cx="156.0150" cy="93.0050" r="0.2250" /> 
</g>
<g style="fill:#4D7FC4; fill-opacity:1.0000; stroke:none;">
<circle cx="144.4250" cy="92.9400" r="0.2250" /> 
</g>
<g style="fill:#4D7FC4; fill-opacity:1.0000; stroke:none;">
<circle cx="168.4500" cy="99.3600" r="0.2250" /> 
</g>
<g style="fill:#4D7FC4; fill-opacity:1.0000; stroke:none;">
<circle cx="143.4500" cy="90.7050" r="0.2250" /> 
</g>
<g style="fill:#4D7FC4; fill-opacity:1.0000; stroke:none;">
<circle cx="151.5750" cy="84.6450" r="0.2250" /> 
</g>
<g style="fill:#4D7FC4; fill-opacity:1.0000; stroke:none;">
<circle cx="142.4500" cy="92.2850" r="0.2250" /> 
</g>
<g style="fill:#4D7FC4; fill-opacity:1.0000; stroke:none;">
<circle cx="168.4400" cy="100.7850" r="0.2250" /> 
</g>
<g style="fill:#4D7FC4; fill-opacity:1.0000; stroke:none;">
<circle cx="167.7500" cy="101.5000" r="0.2250" /> 
</g>
<g style="fill:#4D7FC4; fill-opacity:1.0000; stroke:none;">
<circle cx="140.4700" cy="96.9350" r="0.2250" /> 
</g>
<g style="fill:#4D7FC4; fill-opacity:1.0000; stroke:none;">
<circle cx="154.0650" cy="103.3600" r="0.2250" /> 
</g>
<g style="fill:#4D7FC4; fill-opacity:1.0000; stroke:none;">
<circle cx="142.5200" cy="93.6600" r="0.2250" /> 
</g>
<g style="fill:#4D7FC4; fill-opacity:1.0000; stroke:none;">
<circle cx="140.6000" cy="91.4800" r="0.2250" /> 
</g>
<g style="fill:#4D7FC4; fill-opacity:1.0000; stroke:none;">
<circle cx="151.9000" cy="116.0650" r="0.2250" /> 
</g>
<g style="fill:#4D7FC4; fill-opacity:1.0000; stroke:none;">
<circle cx="151.8200" cy="116.9050" r="0.2250" /> 
</g>
<g style="fill:#4D7FC4; fill-opacity:1.0000; stroke:none;">
<circle cx="167.0950" cy="99.3150" r="0.2250" /> 
</g>
<g style="fill:#4D7FC4; fill-opacity:1.0000; stroke:none;">
<circle cx="150.8700" cy="116.0900" r="0.2250" /> 
</g>
<g style="fill:#4D7FC4; fill-opacity:1.0000; stroke:none;">
<circle cx="154.6650" cy="116.0750" r="0.2250" /> 
</g>
<g style="fill:#4D7FC4; fill-opacity:1.0000; stroke:none;">
<circle cx="140.1500" cy="86.5050" r="0.2250" /> 
</g>
<g style="fill:#4D7FC4; fill-opacity:1.0000; stroke:none;">
<circle cx="169.8450" cy="99.3800" r="0.2250" /> 
</g>
<g style="fill:#4D7FC4; fill-opacity:1.0000; stroke:none;">
<circle cx="143.3100" cy="96.9100" r="0.2250" /> 
</g>
<g style="fill:#4D7FC4; fill-opacity:1.0000; stroke:none;">
<circle cx="143.3200" cy="96.1600" r="0.2250" /> 
</g>
<g style="fill:#4D7FC4; fill-opacity:1.0000; stroke:none;">
<circle cx="141.5100" cy="90.0700" r="0.2250" /> 
</g>
<g style="fill:#4D7FC4; fill-opacity:1.0000; stroke:none;">
<circle cx="168.8900" cy="80.9550" r="0.2250" /> 
</g>
<g style="fill:#4D7FC4; fill-opacity:1.0000; stroke:none;">
<circle cx="140.4550" cy="96.1750" r="0.2250" /> 
</g>
<g style="fill:#4D7FC4; fill-opacity:1.0000; stroke:none;">
<circle cx="140.6250" cy="92.9450" r="0.2250" /> 
</g>
<g style="fill:#4D7FC4; fill-opacity:1.0000; stroke:none;">
<circle cx="148.4750" cy="90.4050" r="0.2250" /> 
</g>
<g style="fill:#4D7FC4; fill-opacity:1.0000; stroke:none;">
<circle cx="142.4100" cy="90.0600" r="0.2250" /> 
</g>
<g style="fill:#4D7FC4; fill-opacity:1.0000; stroke:none;">
<circle cx="169.1450" cy="101.4850" r="0.2250" /> 
</g>
<g style="fill:#4D7FC4; fill-opacity:1.0000; stroke:none;">
<circle cx="144.3950" cy="90.0100" r="0.2250" /> 
</g>
<g style="fill:#4D7FC4; fill-opacity:1.0000; stroke:none;">
<circle cx="157.7350" cy="89.5400" r="0.2250" /> 
</g>
<g style="fill:#4D7FC4; fill-opacity:1.0000; stroke:none;">
<circle cx="151.9400" cy="118.2900" r="0.2250" /> 
</g>
<g style="fill:#4D7FC4; fill-opacity:1.0000; stroke:none;">
<circle cx="143.9500" cy="87.1700" r="0.2250" /> 
</g>
<g style="fill:#4D7FC4; fill-opacity:1.0000; stroke:none;">
<circle cx="141.6050" cy="92.9550" r="0.2250" /> 
</g>
<g style="fill:#4D7FC4; fill-opacity:1.0000; stroke:none;">
<circle cx="151.5400" cy="99.9750" r="0.2250" /> 
</g>
<g style="fill:#4D7FC4; fill-opacity:1.0000; stroke:none;">
<circle cx="168.4600" cy="98.8050" r="0.2250" /> 
</g>
<g style="fill:#4D7FC4; fill-opacity:1.0000; stroke:none;">
<circle cx="143.4750" cy="92.2650" r="0.2250" /> 
</g>
<g style="fill:#4D7FC4; fill-opacity:1.0000; stroke:none;">
<circle cx="154.6650" cy="114.6200" r="0.2250" /> 
</g>
<g style="fill:#4D7FC4; fill-opacity:1.0000; stroke:none;">
<circle cx="143.4400" cy="91.4550" r="0.2250" /> 
</g>
<g style="fill:#4D7FC4; fill-opacity:1.0000; stroke:none;">
<circle cx="144.2650" cy="96.9200" r="0.2250" /> 
</g>
<g style="fill:#4D7FC4; fill-opacity:1.0000; stroke:none;">
<circle cx="140.5850" cy="90.7200" r="0.2250" /> 
</g>
<g style="fill:#4D7FC4; fill-opacity:1.0000; stroke:none;">
<circle cx="142.5000" cy="92.9350" r="0.2250" /> 
</g>
<g style="fill:#4D7FC4; fill-opacity:1.0000; stroke:none;">
<circle cx="151.7800" cy="114.6800" r="0.2250" /> 
</g>
<g style="fill:#4D7FC4; fill-opacity:1.0000; stroke:none;">
<circle cx="154.6950" cy="117.5500" r="0.2250" /> 
</g>
<g style="fill:#4D7FC4; fill-opacity:1.0000; stroke:none;">
<circle cx="141.6700" cy="93.6800" r="0.2250" /> 
</g>
<g style="fill:#4D7FC4; fill-opacity:1.0000; stroke:none;">
<circle cx="143.9600" cy="86.4650" r="0.2250" /> 
</g>
<g style="fill:#4D7FC4; fill-opacity:1.0000; stroke:none;">
<circle cx="143.4350" cy="90.0400" r="0.2250" /> 
</g>
<g style="fill:#4D7FC4; fill-opacity:1.0000; stroke:none;">
<circle cx="143.4800" cy="93.6800" r="0.2250" /> 
</g>
<g style="fill:#4D7FC4; fill-opacity:1.0000; stroke:none;">
<circle cx="150.9100" cy="118.3150" r="0.2250" /> 
</g>
<g style="fill:#4D7FC4; fill-opacity:1.0000; stroke:none;">
<circle cx="152.7700" cy="117.5450" r="0.2250" /> 
</g>
<g style="fill:#4D7FC4; fill-opacity:1.0000; stroke:none;">
<circle cx="153.7600" cy="117.5400" r="0.2250" /> 
</g>
<g style="fill:#4D7FC4; fill-opacity:1.0000; stroke:none;">
<circle cx="140.1500" cy="87.1750" r="0.2250" /> 
</g>
<g style="fill:#4D7FC4; fill-opacity:1.0000; stroke:none;">
<circle cx="153.7500" cy="118.2900" r="0.2250" /> 
</g>
<g style="fill:#4D7FC4; fill-opacity:1.0000; stroke:none;">
<circle cx="167.7400" cy="100.0650" r="0.2250" /> 
</g>
<g style="fill:#4D7FC4; fill-opacity:1.0000; stroke:none;">
<circle cx="151.8750" cy="117.5650" r="0.2250" /> 
</g>
<g style="fill:#4D7FC4; fill-opacity:1.0000; stroke:none;">
<circle cx="169.1500" cy="98.6850" r="0.2250" /> 
</g>
<g style="fill:#4D7FC4; fill-opacity:1.0000; stroke:none;">
<circle cx="153.7200" cy="115.3150" r="0.2250" /> 
</g>
<g style="fill:#4D7FC4; fill-opacity:1.0000; stroke:none;">
<circle cx="145.9300" cy="86.9550" r="0.2250" /> 
</g>
<g style="fill:#4D7FC4; fill-opacity:1.0000; stroke:none;">
<circle cx="144.3850" cy="90.7150" r="0.2250" /> 
</g>
<g style="fill:#4D7FC4; fill-opacity:1.0000; stroke:none;">
<circle cx="149.1950" cy="93.9700" r="0.2250" /> 
</g>
<g style="fill:#4D7FC4; fill-opacity:1.0000; stroke:none;">
<circle cx="154.7050" cy="116.8450" r="0.2250" /> 
</g>
<g style="fill:#4D7FC4; fill-opacity:1.0000; stroke:none;">
<circle cx="151.2650" cy="108.6300" r="0.2250" /> 
</g>
<g style="fill:#4D7FC4; fill-opacity:1.0000; stroke:none;">
<circle cx="143.9600" cy="87.9200" r="0.2250" /> 
</g>
<g style="fill:#4D7FC4; fill-opacity:1.0000; stroke:none;">
<circle cx="141.5000" cy="96.9100" r="0.2250" /> 
</g>
<g style="fill:#4D7FC4; fill-opacity:1.0000; stroke:none;">
<circle cx="144.3950" cy="91.4650" r="0.2250" /> 
</g>
<g style="fill:#4D7FC4; fill-opacity:1.0000; stroke:none;">
<circle cx="144.4350" cy="92.2350" r="0.2250" /> 
</g>
<g style="fill:#4D7FC4; fill-opacity:1.0000; stroke:none;">
<circle cx="140.1650" cy="87.9350" r="0.2250" /> 
</g>
<g style="fill:#4D7FC4; fill-opacity:1.0000; stroke:none;">
<circle cx="143.0050" cy="87.9100" r="0.2250" /> 
</g>
<g style="fill:#4D7FC4; fill-opacity:1.0000; stroke:none;">
<circle cx="150.8950" cy="116.8850" r="0.2250" /> 
</g>
<g style="fill:#4D7FC4; fill-opacity:1.0000; stroke:none;">
<circle cx="150.8550" cy="114.6600" r="0.2250" /> 
</g>
<g style="fill:#4D7FC4; fill-opacity:1.0000; stroke:none;">
<circle cx="141.1950" cy="87.9100" r="0.2250" /> 
</g>
<g style="fill:#4D7FC4; fill-opacity:1.0000; stroke:none;">
<circle cx="144.4350" cy="93.6900" r="0.2250" /> 
</g>
<g style="fill:#4D7FC4; fill-opacity:1.0000; stroke:none;">
<circle cx="142.4600" cy="90.7100" r="0.2250" /> 
</g>
<g style="fill:#4D7FC4; fill-opacity:1.0000; stroke:none;">
<circle cx="152.7300" cy="115.3200" r="0.2250" /> 
</g>
<g style="fill:#4D7FC4; fill-opacity:1.0000; stroke:none;">
<circle cx="169.1400" cy="100.0750" r="0.2250" /> 
</g>
<g style="fill:#4D7FC4; fill-opacity:1.0000; stroke:none;">
<circle cx="154.6550" cy="115.3250" r="0.2250" /> 
</g>
<g style="fill:#4D7FC4; fill-opacity:1.0000; stroke:none;">
<circle cx="168.5100" cy="85.0900" r="0.2250" /> 
</g>
<g style="fill:#4D7FC4; fill-opacity:1.0000; stroke:none;">
<circle cx="156.1600" cy="100.7350" r="0.2250" /> 
</g>
<g style="fill:#4D7FC4; fill-opacity:1.0000; stroke:none;">
<circle cx="166.4450" cy="84.2800" r="0.2250" /> 
</g>
<g style="fill:#4D7FC4; fill-opacity:1.0000; stroke:none;">
<circle cx="142.3500" cy="96.8900" r="0.2250" /> 
</g>
<g style="fill:#4D7FC4; fill-opacity:1.0000; stroke:none;">
<circle cx="150.8950" cy="117.5550" r="0.2250" /> 
</g>
<g style="fill:#4D7FC4; fill-opacity:1.0000; stroke:none;">
<circle cx="151.8350" cy="115.3400" r="0.2250" /> 
</g>
<g style="fill:#4D7FC4; fill-opacity:1.0000; stroke:none;">
<circle cx="140.6400" cy="93.7050" r="0.2250" /> 
</g>
<g style="fill:#4D7FC4; fill-opacity:1.0000; stroke:none;">
<circle cx="152.7900" cy="118.2700" r="0.2250" /> 
</g>
<g style="fill:#4D7FC4; fill-opacity:1.0000; stroke:none;">
<circle cx="154.1550" cy="106.4000" r="0.2250" /> 
</g>
<g style="fill:#4D7FC4; fill-opacity:1.0000; stroke:none;">
<circle cx="141.0750" cy="86.5250" r="0.2250" /> 
</g>
<g style="fill:#4D7FC4; fill-opacity:1.0000; stroke:none;">
<circle cx="143.0000" cy="86.4950" r="0.2250" /> 
</g>
<g style="fill:#4D7FC4; fill-opacity:1.0000; stroke:none;">
<circle cx="141.4350" cy="96.1850" r="0.2250" /> 
</g>
<g style="fill:#4D7FC4; fill-opacity:1.0000; stroke:none;">
<circle cx="154.3150" cy="90.6500" r="0.2250" /> 
</g>
<g style="fill:#4D7FC4; fill-opacity:1.0000; stroke:none;">
<circle cx="143.4900" cy="92.9300" r="0.2250" /> 
</g>
<g style="fill:#4D7FC4; fill-opacity:1.0000; stroke:none;">
<circle cx="169.8550" cy="100.7650" r="0.2250" /> 
</g>
<g style="fill:#4D7FC4; fill-opacity:1.0000; stroke:none;">
<circle cx="153.7100" cy="116.0650" r="0.2250" /> 
</g>
<g style="fill:#4D7FC4; fill-opacity:1.0000; stroke:none;">
<circle cx="167.0300" cy="100.7800" r="0.2250" /> 
</g>
<g style="fill:#4D7FC4; fill-opacity:1.0000; stroke:none;">
<circle cx="150.8550" cy="115.3300" r="0.2250" /> 
</g>
<g style="fill:#4D7FC4; fill-opacity:1.0000; stroke:none;">
<circle cx="140.5850" cy="90.0500" r="0.2250" /> 
</g>
<g style="fill:#4D7FC4; fill-opacity:1.0000; stroke:none;">
<circle cx="141.5500" cy="92.2950" r="0.2250" /> 
</g>
<g style="fill:#4D7FC4; fill-opacity:1.0000; stroke:none;">
<circle cx="142.3300" cy="96.1650" r="0.2250" /> 
</g>
<g style="fill:#4D7FC4; fill-opacity:1.0000; stroke:none;">
<circle cx="152.7500" cy="116.0450" r="0.2250" /> 
</g>
<g style="fill:#4D7FC4; fill-opacity:1.0000; stroke:none;">
<circle cx="143.0150" cy="87.1600" r="0.2250" /> 
</g>
<g style="fill:#4D7FC4; fill-opacity:1.0000; stroke:none;">
<circle cx="152.6800" cy="114.6700" r="0.2250" /> 
</g>
<g style="fill:#4D7FC4; fill-opacity:1.0000; stroke:none;">
<circle cx="153.7450" cy="116.8750" r="0.2250" /> 
</g>
<g style="fill:#4D7FC4; fill-opacity:1.0000; stroke:none;">
<circle cx="144.2550" cy="96.1700" r="0.2250" /> 
</g>
<g style="fill:#4D7FC4; fill-opacity:1.0000; stroke:none;">
<circle cx="142.4800" cy="91.4350" r="0.2250" /> 
</g>
<g style="fill:#4D7FC4; fill-opacity:1.0000; stroke:none;">
<circle cx="168.6250" cy="97.4150" r="0.2250" /> 
</g>
<g style="fill:#4D7FC4; fill-opacity:1.0000; stroke:none;">
<circle cx="153.7050" cy="114.6500" r="0.2250" /> 
</g>
<g style="fill:#4D7FC4; fill-opacity:1.0000; stroke:none;">
<circle cx="165.7250" cy="80.9800" r="0.2250" /> 
</g>
<g style="fill:#4D7FC4; fill-opacity:1.0000; stroke:none;">
<circle cx="153.1800" cy="103.3850" r="0.2250" /> 
</g>
<g style="fill:#4D7FC4; fill-opacity:1.0000; stroke:none;">
<circle cx="154.2750" cy="91.6100" r="0.2250" /> 
</g>
<g style="fill:#4D7FC4; fill-opacity:1.0000; stroke:none;">
<circle cx="172.4150" cy="88.6600" r="0.2250" /> 
</g>
<g style="fill:#4D7FC4; fill-opacity:1.0000; stroke:none;">
<circle cx="155.6025" cy="98.5050" r="0.2250" /> 
</g>
<g style="fill:#4D7FC4; fill-opacity:1.0000; stroke:none;">
<circle cx="155.9100" cy="101.7800" r="0.2250" /> 
</g>
<g style="fill:#4D7FC4; fill-opacity:1.0000; stroke:none;">
<circle cx="161.7200" cy="90.2050" r="0.2250" /> 
</g>
<g style="fill:#4D7FC4; fill-opacity:1.0000; stroke:none;">
<circle cx="169.1500" cy="84.4750" r="0.2250" /> 
</g>
<g style="fill:#4D7FC4; fill-opacity:1.0000; stroke:none;">
<circle cx="153.1700" cy="98.9550" r="0.2250" /> 
</g>
<g style="fill:#4D7FC4; fill-opacity:1.0000; stroke:none;">
<circle cx="160.7800" cy="94.6600" r="0.2250" /> 
</g>
<g style="fill:#4D7FC4; fill-opacity:1.0000; stroke:none;">
<circle cx="160.4950" cy="97.1050" r="0.2250" /> 
</g>
<g style="fill:#4D7FC4; fill-opacity:1.0000; stroke:none;">
<circle cx="165.8900" cy="85.2450" r="0.2250" /> 
</g>
<g style="fill:#4D7FC4; fill-opacity:1.0000; stroke:none;">
<circle cx="154.5050" cy="98.4550" r="0.2250" /> 
</g>
<g style="fill:#4D7FC4; fill-opacity:1.0000; stroke:none;">
<circle cx="163.2000" cy="113.7500" r="0.2250" /> 
</g>
<g style="fill:#4D7FC4; fill-opacity:1.0000; stroke:none;">
<circle cx="164.6450" cy="96.4700" r="0.2250" /> 
</g>
<g style="fill:#4D7FC4; fill-opacity:1.0000; stroke:none;">
<circle cx="163.2000" cy="96.4750" r="0.2250" /> 
</g>
<g style="fill:#4D7FC4; fill-opacity:1.0000; stroke:none;">
<circle cx="160.9150" cy="113.7050" r="0.2250" /> 
</g>
<g style="fill:#4D7FC4; fill-opacity:1.0000; stroke:none;">
<circle cx="160.4650" cy="104.9100" r="0.2250" /> 
</g>
<g style="fill:#4D7FC4; fill-opacity:1.0000; stroke:none;">
<circle cx="137.5300" cy="99.0600" r="0.2250" /> 
</g>
<g style="fill:none; 
stroke:#4D7FC4; stroke-width:0.2000; stroke-opacity:1; 
stroke-linecap:round; stroke-linejoin:round;">
<path d="M157.4650 94.6600
L153.1700 98.9550
" />
<path d="M160.7800 94.6600
L157.4650 94.6600
" />
<path d="M154.5050 98.4550
L155.8550 97.1050
" />
<path d="M155.8550 97.1050
L160.4950 97.1050
" />
<path d="M162.5000 95.1000
L160.4950 97.1050
" />
<path d="M162.5000 88.6350
L162.5000 95.1000
" />
<path d="M165.8900 85.2450
L162.5000 88.6350
" />
<path d="M163.2000 113.7500
L163.2000 97.9150
" />
<path d="M163.2000 97.9150
L164.6450 96.4700
" />
<path d="M162.7990 96.8760
L163.2000 96.4750
" />
<path d="M162.7990 111.8210
L162.7990 96.8760
" />
<path d="M160.9150 113.7050
L162.7990 111.8210
" />
<path d="M143.2660 104.7960
L137.5300 99.0600
" />
<path d="M160.4650 104.9100
L160.3510 104.7960
" />
<path d="M160.3510 104.7960
L143.2660 104.7960
" />
</g>
<g style="fill:#02FFEE; fill-opacity:0.4000; stroke:none;">
<circle cx="173.5250" cy="116.0250" r="1.5000" /> 
</g>
<g style="fill:#02FFEE; fill-opacity:0.4000; stroke:none;">
<circle cx="162.3950" cy="84.9600" r="0.3000" /> 
</g>
<g style="fill:#02FFEE; fill-opacity:0.4000; stroke:none;">
<circle cx="156.6150" cy="84.9600" r="0.3000" /> 
</g>
<g style="fill:none; 
stroke:#02FFEE; stroke-width:0.9000; stroke-opacity:1; 
stroke-linecap:round; stroke-linejoin:round;">
<path d="M163.8250 84.8900
L163.8250 85.9900
" />
<path d="M163.8250 80.8700
L163.8250 81.6700
" />
<path d="M155.1850 84.8900
L155.1850 85.9900
" />
<path d="M155.1850 80.8700
L155.1850 81.6700
" />
<path style="fill:#02FFEE; fill-opacity:0.4000; stroke:none;fill-rule:evenodd;"
d="M 143.3950,84.5500
143.3760,84.6457
143.3218,84.7268
143.2407,84.7810
143.1450,84.8000
142.4450,84.8000
142.3493,84.7810
142.2682,84.7268
142.2140,84.6457
142.1950,84.5500
142.1950,83.3000
142.2140,83.2043
142.2682,83.1232
142.3493,83.0690
142.4450,83.0500
143.1450,83.0500
143.2407,83.0690
143.3218,83.1232
143.3760,83.2043
143.3950,83.3000
Z" /> 
</g>
<g style="fill:none; 
stroke:#02FFEE; stroke-width:1.2000; stroke-opacity:1; 
stroke-linecap:round; stroke-linejoin:round;">
<path d="M140.7950 84.2000
L140.7950 83.6500
" />
</g>
<g style="fill:#02FFEE; fill-opacity:0.4000; stroke:none;">
<circle cx="134.4650" cy="116.0250" r="1.5000" /> 
</g>
<g style="fill:#02FFEE; fill-opacity:0.4000; stroke:none;">
<circle cx="173.5250" cy="83.9750" r="1.5000" /> 
</g>
<g style="fill:#02FFEE; fill-opacity:0.4000; stroke:none;">
<circle cx="134.4650" cy="83.9750" r="1.5000" /> 
<path style="fill:#02FFEE; fill-opacity:0.4000; stroke:none;fill-rule:evenodd;"
d="M 133.4800,104.2950
133.4800,102.5950
135.1800,102.5950
135.1800,104.2950
Z" /> 
</g>
<g style="fill:#02FFEE; fill-opacity:0.4000; stroke:none;">
<circle cx="134.3300" cy="105.9850" r="0.8500" /> 
</g>
<g style="fill:#02FFEE; fill-opacity:0.4000; stroke:none;">
<circle cx="134.3300" cy="108.5250" r="0.8500" /> 
<path style="fill:#02FFEE; fill-opacity:0.4000; stroke:none;fill-rule:evenodd;"
d="M 133.4718,94.1576
133.4718,92.4576
135.1718,92.4576
135.1718,94.1576
Z" /> 
</g>
<g style="fill:#02FFEE; fill-opacity:0.4000; stroke:none;">
<circle cx="134.3218" cy="95.8476" r="0.8500" /> 
</g>
<g style="fill:#02FFEE; fill-opacity:0.4000; stroke:none;">
<circle cx="134.3218" cy="98.3876" r="0.8500" /> 
<path style="fill:#02FFEE; fill-opacity:0.4000; stroke:none;fill-rule:evenodd;"
d="M 158.9650,118.3550
157.2650,118.3550
157.2650,116.6550
158.9650,116.6550
Z" /> 
</g>
<g style="fill:#02FFEE; fill-opacity:0.4000; stroke:none;">
<circle cx="160.6550" cy="117.5050" r="0.8500" /> 
</g>
<g style="fill:#02FFEE; fill-opacity:0.4000; stroke:none;">
<circle cx="163.1950" cy="117.5050" r="0.8500" /> 
</g>
<g style="fill:#02FFEE; fill-opacity:0.4000; stroke:none;">
<circle cx="165.7350" cy="117.5050" r="0.8500" /> 
<path style="fill:none; 
stroke:#D0D2CD; stroke-width:0.0500; stroke-opacity:1; 
stroke-linecap:round; stroke-linejoin:round;fill:none"
d="M 130.4900,80.0000
177.5000,80.0000
177.5000,120.0000
130.4900,120.0000
Z" /> 
</g> 
</svg>
